/* XPM */
static char *_1447316c48f4361c681f81760fd830f[] = {
/* columns rows colors chars-per-pixel */
"64 64 100 2 ",
"   c #58585858FFFF",
".  c #5A5A5A5AFFFF",
"X  c #5B5B5B5BFFFF",
"o  c #5C5C5C5CFFFF",
"O  c #5D5D5D5DFFFF",
"+  c #5E5E5E5EFFFF",
"@  c #5F5F5F5FFFFF",
"#  c #60606060FFFF",
"$  c #61616161FFFF",
"%  c #62626262FFFF",
"&  c #63636363FFFF",
"*  c #64646464FFFF",
"=  c #65656565FFFF",
"-  c #66666666FFFF",
";  c #67676767FFFF",
":  c #68686868FFFF",
">  c #69696969FFFF",
",  c #6A6A6A6AFFFF",
"<  c #6B6B6B6BFFFF",
"1  c #6C6C6C6CFFFF",
"2  c #6D6D6D6DFFFF",
"3  c #6E6E6E6EFFFF",
"4  c #6F6F6F6FFFFF",
"5  c #70707070FFFF",
"6  c #71717171FFFF",
"7  c #72727272FFFF",
"8  c #73737373FFFF",
"9  c #74747474FFFF",
"0  c #75757575FFFF",
"q  c #76767676FFFF",
"w  c #77777777FFFF",
"e  c #78787878FFFF",
"r  c #79797979FFFF",
"t  c #7A7A7A7AFFFF",
"y  c #7B7B7B7BFFFF",
"u  c #7C7C7C7CFFFF",
"i  c #7D7D7D7DFFFF",
"p  c #7E7E7E7EFFFF",
"a  c #7F7F7F7FFFFF",
"s  c #80808080FFFF",
"d  c #81818181FFFF",
"f  c #82828282FFFF",
"g  c #83838383FFFF",
"h  c #84848484FFFF",
"j  c #85858585FFFF",
"k  c #86868686FFFF",
"l  c #87878787FFFF",
"z  c #88888888FFFF",
"x  c #89898989FFFF",
"c  c #8A8A8A8AFFFF",
"v  c #8B8B8B8BFFFF",
"b  c #8C8C8C8CFFFF",
"n  c #8D8D8D8DFFFF",
"m  c #8E8E8E8EFFFF",
"M  c #8F8F8F8FFFFF",
"N  c #90909090FFFF",
"B  c #91919191FFFF",
"V  c #92929292FFFF",
"C  c #93939393FFFF",
"Z  c #94949494FFFF",
"A  c #95959595FFFF",
"S  c #96969696FFFF",
"D  c #97979797FFFF",
"F  c #98989898FFFF",
"G  c #99999999FFFF",
"H  c #9A9A9A9AFFFF",
"J  c #9B9B9B9BFFFF",
"K  c #9C9C9C9CFFFF",
"L  c #9D9D9D9DFFFF",
"P  c #9E9E9E9EFFFF",
"I  c #9F9F9F9FFFFF",
"U  c #A0A0A0A0FFFF",
"Y  c #A1A1A1A1FFFF",
"T  c #A2A2A2A2FFFF",
"R  c #A3A3A3A3FFFF",
"E  c #A4A4A4A4FFFF",
"W  c #A5A5A5A5FFFF",
"Q  c #A6A6A6A6FFFF",
"!  c #A7A7A7A7FFFF",
"~  c #A8A8A8A8FFFF",
"^  c #A9A9A9A9FFFF",
"/  c #AAAAAAAAFFFF",
"(  c #ABABABABFFFF",
")  c #ACACACACFFFF",
"_  c #ADADADADFFFF",
"`  c #AEAEAEAEFFFF",
"'  c #B0B0B0B0FFFF",
"]  c #B1B1B1B1FFFF",
"[  c #B2B2B2B2FFFF",
"{  c #B3B3B3B3FFFF",
"}  c #B4B4B4B4FFFF",
"|  c #B5B5B5B5FFFF",
" . c #B6B6B6B6FFFF",
".. c #B7B7B7B7FFFF",
"X. c #B8B8B8B8FFFF",
"o. c #B9B9B9B9FFFF",
"O. c #BABABABAFFFF",
"+. c #CCCCCCCCFFFF",
"@. c #D0D0D0D0FFFF",
"#. c None",
/* pixels */
"#.#.#.#.#.#.#.#.#.#.#.#.#.#.#.#.#.#.#.#.#.#.#.#.#.#.#.#.#.#.#.#.#.#.#.#.#.#.#.#.#.#.#.#.#.#.#.#.#.#.#.#.#.#.#.#.#.#.#.#.#.#.#.#.",
"#.#.#.#.#.#.#.#.#.#.#.#.#.#.#.#.#.#.#.#.#.#.#.#.#.#.#.#.#.#.#.#.#.#.#.#.#.#.#.#.#.#.#.#.#.#.#.#.#.#.#.#.#.#.#.#.#.#.#.#.#.#.#.#.",
"#.#.#.#.#.#.#.#.#.#.#.#.#.#.#.#.#.#.#.#.#.#.#.#.#.#.#.#.#.#.#.#.#.#.#.#.#.#.#.#.#.#.#.#.#.#.#.#.#.#.#.#.#.#.#.#.#.#.#.#.#.#.#.#.",
"#.#.#.#.#.#.#.#.#.#.#.#.#.#.#.#.#.#.#.#.#.#.#.#.#.#.#.#.#.#.#.#.#.#.#.#.#.#.#.#.#.#.#.#.#.#.#.#.#.#.#.#.#.#.#.#.#.#.#.#.#.#.#.#.",
"#.#.#.#.#.#.#.#.#.#.#.#.#.#.#.#.#.#.#.#.#.#.#.#.#.#.#.#.#.#.#.#.#.#.#.#.#.#.#.#.#.#.#.#.#.#.#.#.#.#.#.#.#.#.#.#.#.#.#.#.#.#.#.#.",
"#.#.#.#.#.#.#.#.#.#.#.#.#.#.#.#.#.#.#.#.#.#.#.#.#.#.#.#.#.#.#.#.#.#.#.#.#.#.#.#.#.#.#.#.#.#.#.#.#.#.#.#.#.#.#.#.#.#.#.#.#.#.#.#.",
"#.#.#.#.#.#.#.#.#.#.#.#.#.#.#.#.#.#.#.#.#.#.#.#.#.#.#.#.#.#.#.#.#.#.#.#.#.#.#.#.#.#.#.#.#.#.#.#.#.#.#.#.#.#.#.#.#.#.#.#.#.#.#.#.",
"#.#.#.#.#.#.#.#.#.#.#.#.#.#.#.#.#.#.#.#.#.#.#.#.#.#.#.#.#.#.#.#.#.#.#.#.#.#.#.#.#.#.#.#.#.#.#.#.#.#.#.#.#.#.#.#.#.#.#.#.#.#.#.#.",
"#.#.#.#.#.#.#.#.#.#.#.#.#.#.#.#.#.#.#.#.#.#.#.#.#.#.#.#.#.#.#.#.#.#.#.#.#.#.#.#.#.#.#.#.#.#.#.#.#.#.#.#.#.#.#.#.#.#.#.#.#.#.#.#.",
"#.#.#.#.#.#.#.#.#.#.#.#.#.#.#.#.#.#.#.#.#.#.#.#.#.#.#.#.#.#.#.#.#.#.#.#.#.#.#.#.#.#.#.#.#.#.#.#.#.#.#.#.#.#.#.#.#.#.#.#.#.#.#.#.",
"#.#.#.#.#.#.#.#.#.#.#.#.#.#.#.#.#.#.#.#.#.#.#.#.#.#.#.#.#.#.#.#.#.#.#.#.#.#.#.#.#.#.#.#.#.#.#.#.#.#.#.#.#.#.#.#.#.#.#.#.#.#.#.#.",
"#.#.#.#.#.#.#.#.#.#.#.#.#.#.#.#.#.#.#.#.#.#.#.#.#.#.#.#.#.#.#.#.#.#.#.#.#.#.#.#.#.#.#.#.#.#.#.#.#.#.#.#.#.#.#.#.#.#.#.#.#.#.#.#.",
"#.#.#.#.#.#.#.#.#.#.#.#.^ - w e e e e e w w 3 8 #.#.#.W F #.#.#.n #.#.W B #.#.#.w w 8 3 3 8 8 8 8 3 : Y #.#.#.#.#.#.#.#.#.#.#.#.",
"#.#.#.#.#.#.#.#.#.#.#...- #.#.#.#.#.#.#.#.#.#.#.#.#.g P D #.#.#.l [ [ P v #...#.#.#.#.#.#.#.#.#.#.#.#.: [ #.#.#.#.#.#.#.#.#.#.#.",
"#.#.#.#.#.#.#.#.#.#.#.O #.#.. . O O O O O & - - #.#.g P D #.#.#.l [ #.P v #.#.#.. - : : : : : : - : #.#.: #.#.#.#.#.#.#.#.#.#.#.",
"#.#.#.#.#.#.#.#.#.#.- #.#.: P #.#.#.#.#.#.#.#.#.#.#.g P D #.#.#.l [ #.Y v #.#.#.#.#.#.#.#.#.#.#.#.D O #.#.O #.#.#.#.#.#.#.#.#.#.",
"#.#.#.#.#.#.#.#.#.- #.#.- #.#.w 8 8 w 8 w 8 8 8 #.#.g P D #.#.#.l [ #.Y v #.#.#.3 8 8 3 3 8 8 8 w #.#.: #.#.- #.#.#.#.#.#.#.#.#.",
"#.#.#.#.#.#.#.#.& #.#.- #.#.: u l u u g u l g g #.#.g P D #.#.#.l [ #.Y v #.#.#.g g g l g g g l l : #.#.- #.#.: #.#.#.#.#.#.#.#.",
"#.#.#.#.#.#.#.& W #.O #.#.& #.#.n u e e u n n B #.#.g Y D #.#.#.v ` #.P v #.#.#.v n n n n B n n #.#.: #.#.& #.#.O #.#.#.#.#.#.#.",
"#.#.#.#.#.#.: [ #.- ..#.& #.#.3 3 8 l l l g g l #.#.g P D #.#.#.l [ ..Y l #.#.#.g g g l u 3 8 3 - #.#.O #.#.- #...: #.#.#.#.#.#.",
"#.#.#.#.#.: n #.8 Y #.: ..#.- [ #.#.#.#.#.#.#...#.#.g P D #.#.& #.#.#.P Y #.#.#.#.#.#.#.#.#.#.#.#.- #...- #...: #.F 8 #.#.#.#.#.",
"#.#.#.#.3 n #.& B #.- Y #.- ` #.3 3 3 - O & & O #.#.g P D #.#.#.F #.#.v #.#.#.#.O & & & & - 8 : #...: #.Y 3 #.B & #.l & #.#.#.#.",
"#.#.#.u D #.w P #.8 B #.3 F #.8 D #.#.#.#.#.#.#.#.#.u Y F #.#.#.F #.@.P #.Y #.#.#.#.#.#.#.#.#.^ 3 #.Y - #.D : #.D 3 #.P e #.#.#.",
"#.#.D & #.#.O #.#.& #.#.. #.#.O #.#.#.#.#.#.#.#.#.#.W F P #.#.#.F #.+.Y #.g #.#.#.#.#.#.#.#.#.#.& P #.O #.#.O #.#.& #.#.& B #.#.",
"#.#.#.#.3 #.#.& #.#.& #.Y : #.W 3 #.#.#.#.#.#.#.#.#.#.g v v #.#.D #.D [ D #.#.#.#.#.#.#.#.#.#.3 W #.: ^ #.- W #.O #.#.- #.#.#.#.",
"#.#.#.#.l O #.W - #.` : #.^ w #.B w #.#.#.#.#.#.#.#.#.P #.D P u Y B Y #.Y #.#.#.#.#.#.#.#.#.8 l #.w P #.3 ` #.: ` #.- n #.#.#.#.",
"#.#.#.#.#.^ - #.[ 3 #.P w #.v 3 #.g - #.#.#.#.#.#.#.#.#.D Y e 3 Y F #.#.Y #.#.#.#.#.#.#.#.8 u #.- l #.3 n #.8 W #.- ` #.#.#.#.#.",
"#.#.#.#.#.#.Y 3 #.B : #.l & #.l 8 #.v e #.#.#.#.#.#.#.#.Y P u : W D #.B F #.#.#.#.#.#.#.u n #.w n #.3 l #.& n #.: P #.#.#.#.#.#.",
"#.#.#.#.#.#.#.v O #.v 3 #.B 8 #.n u #.g v #.#.#.#.#.#.#.W W u - #.F #.o.#.#.#.#.#.#.#.g e #.l v #.e D #.3 B #.- g #.#.#.#.#.#.#.",
"#.#.#.#.#.#.#.#.B 3 #.F w #.v g #.u u #.w w #.#.#.#.#.#.#.#.u : #.P #.P W #.#.#.#.#.e 8 #.w e #.u g #.e B #.8 F #.#.#.#.#.#.#.#.",
"#.#.#.#.#.#.#.#.#.B e #.g e #.u 8 #.8 g #.w l #.#.#.#.W P #.v #.#.^ #.Y ` #.#.#.#.n e #.l w #.e w #.8 g #.w v #.#.#.#.#.#.#.#.#.",
"#.#.#.#.#.#.#.#.#.#.u 3 #.w e #.e l #.e D #.8 F #.#.#.[ ^ #.w #.#.P #.#.#.#.#.#.F 8 #.F w #.n u #.g e #.8 w #.#.#.#.#.#.#.#.#.#.",
"#.#.#.#.#.#.#.#.#.#.#.w g #.g v #.e F #.3 P #.3 g #.#.#.#.#.n #.#.#.#.#.#.#.#.l - #.D : #.F 8 #.B u #.l u #.#.#.#.#.#.#.#.#.#.#.",
"#.#.#.#.#.#.#.#.#.#.#.#.u B #.8 D #.3 n #.- n #.- F #.#.#.#.Y #.#.#.#.#.#.#.Y : #.D & #.l 3 #.l 8 #.B w #.#.#.#.#.#.#.#.#.#.#.#.",
"#.#.#.#.#.#.#.#.#.#.#.#.#.8 e #.: l #.- D #.3 W #.- ` #.#.#.#.#.#.#.#.#.#.[ - #.[ 3 #.P 3 #.B : #.u - #.#.#.#.#.#.#.#.#.#.#.#.#.",
"#.#.#.#.#.#.#.#.#.#.#.#.#.#.3 n #.8 P #.8 ` #.- o.#.- ^ #.#.#.#.#.#.#.#.B - #.F : #...: #.^ 8 #.D 8 #.#.#.#.#.#.#.#.#.#.#.#.#.#.",
"#.#.#.#.#.#.#.#.#.#.#.#.#.#.#.3 W #.3 ^ #.3 B #.& #.#.O #.#.#.W P #.#.#.- #.#.& #.#.- #.W : #.^ : #.#.#.#.#.#.#.#.#.#.#.#.#.#.#.",
"#.#.#.#.#.#.#.#.#.#.#.#.#.#.#.#.: P #.& #.#.O #.#.: #.#.: #.#.#.#.#.#.- #.#.- #.#.- #.#.& #.n - #.#.#.#.#.#.#.#.#.#.#.#.#.#.#.#.",
"#.#.#.#.#.#.#.#.#.#.#.#.#.#.#.#.#.O B #.: #.#.3 #.#.- #.#.: #.#.#.#.: #.#.: #.#.: #.#.3 #.#.- #.#.#.#.#.#.#.#.#.#.#.#.#.#.#.#.#.",
"#.#.#.#.#.#.#.#.#.#.#.#.#.#.#.#.#.#.: ^ #.: #.#.: #.#.- #.#.. #.#.& #.#.. #.#.- #.#.- #.[ - #.#.#.#.#.#.#.#.#.#.#.#.#.#.#.#.#.#.",
"#.#.#.#.#.#.#.#.#.#.#.#.#.#.#.#.#.#.#.: #.#.- #.#.O #.#.& #.[ : - ..#.- #.#.O #.#.O #.#.: #.#.#.#.#.#.#.#.#.#.#.#.#.#.#.#.#.#.#.",
"#.#.#.#.#.#.#.#.#.#.#.#.#.#.#.#.#.#.#.#.O #.#.& #.#.- #.o.- #.[ W #.- o.#.- o.#.: #.#.& #.#.#.#.#.#.#.#.#.#.#.#.#.#.#.#.#.#.#.#.",
"#.#.#.#.#.#.#.#.#.#.#.#.#.#.#.#.#.#.#.#.#.: #.#.- #...- #.W : #.#.- F #.: P #.: ..#.: ` #.#.#.#.#.#.#.#.#.#.#.#.#.#.#.#.#.#.#.#.",
"#.#.#.#.#.#.#.#.#.#.#.#.#.#.#.#.#.#.#.#.#.` : #.#.3 #.F - #.B & : D #.& F #.& #.#.3 Y #.#.#.#.#.#.#.#.#.#.#.#.#.#.#.#.#.#.#.#.#.",
"#.#.#.#.#.#.#.#.#.#.#.#.#.#.#.#.#.#.#.#.#.#.B O #.#.& #.P : #.P Y #.3 W #.: Y #.O g #.#.#.#.#.#.#.#.#.#.#.#.#.#.#.#.#.#.#.#.#.#.",
"#.#.#.#.#.#.#.#.#.#.#.#.#.#.#.#.#.#.#.#.#.#.#.D - #.` : #.W w #.#.e F #.3 ` #.: Y #.#.#.#.#.#.#.#.#.#.#.#.#.#.#.#.#.#.#.#.#.#.#.",
"#.#.#.#.#.#.#.#.#.#.#.#.#.#.#.#.#.#.#.#.#.#.#.#.^ 3 #.F w #.v 3 - l #.3 v #.w F #.#.#.#.#.#.#.#.#.#.#.#.#.#.#.#.#.#.#.#.#.#.#.#.",
"#.#.#.#.#.#.#.#.#.#.#.#.#.#.#.#.#.#.#.#.#.#.#.#.#.n 3 #.l - #.u n #.3 g #.O v #.#.#.#.#.#.#.#.#.#.#.#.#.#.#.#.#.#.#.#.#.#.#.#.#.",
"#.#.#.#.#.#.#.#.#.#.#.#.#.#.#.#.#.#.#.#.#.#.#.#.#.#.u 3 #.B w #.#.u B #.w l #.#.#.#.#.#.#.#.#.#.#.#.#.#.#.#.#.#.#.#.#.#.#.#.#.#.",
"#.#.#.#.#.#.#.#.#.#.#.#.#.#.#.#.#.#.#.#.#.#.#.#.#.#.#.D e #.l l v u #.u n #.#.#.#.#.#.#.#.#.#.#.#.#.#.#.#.#.#.#.#.#.#.#.#.#.#.#.",
"#.#.#.#.#.#.#.#.#.#.#.#.#.#.#.#.#.#.#.#.#.#.#.#.#.#.#.#.l e #.e 8 #.3 u #.#.#.#.#.#.#.#.#.#.#.#.#.#.#.#.#.#.#.#.#.#.#.#.#.#.#.#.",
"#.#.#.#.#.#.#.#.#.#.#.#.#.#.#.#.#.#.#.#.#.#.#.#.#.#.#.#.#.: u #.#.g w #.#.#.#.#.#.#.#.#.#.#.#.#.#.#.#.#.#.#.#.#.#.#.#.#.#.#.#.#.",
"#.#.#.#.#.#.#.#.#.#.#.#.#.#.#.#.#.#.#.#.#.#.#.#.#.#.#.#.#.#.u B B w #.#.#.#.#.#.#.#.#.#.#.#.#.#.#.#.#.#.#.#.#.#.#.#.#.#.#.#.#.#.",
"#.#.#.#.#.#.#.#.#.#.#.#.#.#.#.#.#.#.#.#.#.#.#.#.#.#.#.#.#.#.#.8 3 #.#.#.#.#.#.#.#.#.#.#.#.#.#.#.#.#.#.#.#.#.#.#.#.#.#.#.#.#.#.#.",
"#.#.#.#.#.#.#.#.#.#.#.#.#.#.#.#.#.#.#.#.#.#.#.#.#.#.#.#.#.#.#.#.#.#.#.#.#.#.#.#.#.#.#.#.#.#.#.#.#.#.#.#.#.#.#.#.#.#.#.#.#.#.#.#.",
"#.#.#.#.#.#.#.#.#.#.#.#.#.#.#.#.#.#.#.#.#.#.#.#.#.#.#.#.#.#.#.#.#.#.#.#.#.#.#.#.#.#.#.#.#.#.#.#.#.#.#.#.#.#.#.#.#.#.#.#.#.#.#.#.",
"#.#.#.#.#.#.#.#.#.#.#.#.#.#.#.#.#.#.#.#.#.#.#.#.#.#.#.#.#.#.#.#.#.#.#.#.#.#.#.#.#.#.#.#.#.#.#.#.#.#.#.#.#.#.#.#.#.#.#.#.#.#.#.#.",
"#.#.#.#.#.#.#.#.#.#.#.#.#.#.#.#.#.#.#.#.#.#.#.#.#.#.#.#.#.#.#.#.#.#.#.#.#.#.#.#.#.#.#.#.#.#.#.#.#.#.#.#.#.#.#.#.#.#.#.#.#.#.#.#.",
"#.#.#.#.#.#.#.#.#.#.#.#.#.#.#.#.#.#.#.#.#.#.#.#.#.#.#.#.#.#.#.#.#.#.#.#.#.#.#.#.#.#.#.#.#.#.#.#.#.#.#.#.#.#.#.#.#.#.#.#.#.#.#.#.",
"#.#.#.#.#.#.#.#.#.#.#.#.#.#.#.#.#.#.#.#.#.#.#.#.#.#.#.#.#.#.#.#.#.#.#.#.#.#.#.#.#.#.#.#.#.#.#.#.#.#.#.#.#.#.#.#.#.#.#.#.#.#.#.#.",
"#.#.#.#.#.#.#.#.#.#.#.#.#.#.#.#.#.#.#.#.#.#.#.#.#.#.#.#.#.#.#.#.#.#.#.#.#.#.#.#.#.#.#.#.#.#.#.#.#.#.#.#.#.#.#.#.#.#.#.#.#.#.#.#.",
"#.#.#.#.#.#.#.#.#.#.#.#.#.#.#.#.#.#.#.#.#.#.#.#.#.#.#.#.#.#.#.#.#.#.#.#.#.#.#.#.#.#.#.#.#.#.#.#.#.#.#.#.#.#.#.#.#.#.#.#.#.#.#.#.",
"#.#.#.#.#.#.#.#.#.#.#.#.#.#.#.#.#.#.#.#.#.#.#.#.#.#.#.#.#.#.#.#.#.#.#.#.#.#.#.#.#.#.#.#.#.#.#.#.#.#.#.#.#.#.#.#.#.#.#.#.#.#.#.#.",
"#.#.#.#.#.#.#.#.#.#.#.#.#.#.#.#.#.#.#.#.#.#.#.#.#.#.#.#.#.#.#.#.#.#.#.#.#.#.#.#.#.#.#.#.#.#.#.#.#.#.#.#.#.#.#.#.#.#.#.#.#.#.#.#."
};
