/* XPM */
static char *eecdeba2e58946dcda7dc5579abe4a5b[] = {
/* columns rows colors chars-per-pixel */
"16 16 29 1 ",
"  c #6C6CFF",
". c #7474FF",
"X c #7F7FFF",
"o c #8181FF",
"O c #8383FF",
"+ c #8888FF",
"@ c #8B8BFF",
"# c #8C8CFF",
"$ c #8D8DFF",
"% c #9090FF",
"& c #9292FF",
"* c #9393FF",
"= c #9494FF",
"- c #9595FF",
"; c #9696FF",
": c #9797FF",
"> c #9898FF",
", c #9999FF",
"< c #9A9AFF",
"1 c #9B9BFF",
"2 c #9C9CFF",
"3 c #9D9DFF",
"4 c #9E9EFF",
"5 c #9F9FFF",
"6 c #A0A0FF",
"7 c #A1A1FF",
"8 c #A2A2FF",
"9 c #A7A7FF",
"0 c None",
/* pixels */
"0000000000000000",
"0000000000000000",
"0000000000000000",
"000O.00*500 O000",
"00>>O+##>0@O:>00",
"0:>5000*90007>:0",
"07>>000*5000::90",
"005**00@000**500",
"000>>:0000>5>000",
"00005*:00:>>0000",
"00000*>55:*00000",
"0000007::5000000",
"0000000::0000000",
"0000000000000000",
"0000000000000000",
"0000000000000000"
};
