/* XPM */
static char *_6fadf0eba5c4a1ca35d8c420656e0d1[] = {
/* columns rows colors chars-per-pixel */
"32 32 62 1 ",
"  c #6767FF",
". c #6868FF",
"X c #6A6AFF",
"o c #7171FF",
"O c #7272FF",
"+ c #7373FF",
"@ c #7474FF",
"# c #7575FF",
"$ c #7777FF",
"% c #7878FF",
"& c #7A7AFF",
"* c #7C7CFF",
"= c #7D7DFF",
"- c #7E7EFF",
"; c #7F7FFF",
": c #8080FF",
"> c #8181FF",
", c #8282FF",
"< c #8383FF",
"1 c #8585FF",
"2 c #8686FF",
"3 c #8787FF",
"4 c #8888FF",
"5 c #8989FF",
"6 c #8A8AFF",
"7 c #8B8BFF",
"8 c #8C8CFF",
"9 c #8D8DFF",
"0 c #8E8EFF",
"q c #8F8FFF",
"w c #9090FF",
"e c #9191FF",
"r c #9292FF",
"t c #9393FF",
"y c #9494FF",
"u c #9595FF",
"i c #9696FF",
"p c #9797FF",
"a c #9898FF",
"s c #9999FF",
"d c #9A9AFF",
"f c #9B9BFF",
"g c #9C9CFF",
"h c #9D9DFF",
"j c #9E9EFF",
"k c #9F9FFF",
"l c #A0A0FF",
"z c #A1A1FF",
"x c #A2A2FF",
"c c #A3A3FF",
"v c #A4A4FF",
"b c #A6A6FF",
"n c #A7A7FF",
"m c #A8A8FF",
"M c #A9A9FF",
"N c #AAAAFF",
"B c #ABABFF",
"V c #ACACFF",
"C c #AEAEFF",
"Z c #AFAFFF",
"A c #B0B0FF",
"S c None",
/* pixels */
"SSSSSSSSSSSSSSSSSSSSSSSSSSSSSSSS",
"SSSSSSSSSSSSSSSSSSSSSSSSSSSSSSSS",
"SSSSSSSSSSSSSSSSSSSSSSSSSSSSSSSS",
"SSSSSSSSSSSSSSSSSSSSSSSSSSSSSSSS",
"SSSSSSSSSSSSSSSSSSSSSSSSSSSSSSSS",
"SSSSSSSSSSSSSSSSSSSSSSSSSSSSSSSS",
"SSSSSS6%$%$.SrxSSVrSO   .8SSSSSS",
"SSSSS6r-OOO$S8xSsV6S$$$$-y8SSSSS",
"SSSS8hxr---:SrxShV6S-:::rxhySSSS",
"SSSxhyss:28yS8xSsV6Srr62yyrsxSSS",
"SS8yhxxv6226S8vSSVSS:2:8xvxxy6SS",
"SymssyrySSSSSsvSSVrSSSSShysrrxrS",
"SS:yhxvvvSSSSSyhsAhSSSShxvxxs6SS",
"SSSxhsyy8sSSSSh$sSSSSShy88rssSSS",
"SSSS2ysssyrSSSh%SySSS8rsshy8SSSS",
"SSSSS8ryyhxvSShSSSSSmxhssr6SSSSS",
"SSSSSSyhhhsyySS:SSSVrysshsSSSSSS",
"SSSSSSS8hhxhxSSSSSSyxxvhrSSSSSSS",
"SSSSSSSShsyryrSSSSsyrryySSSSSSSS",
"SSSSSSSSSryhssrSSrysshySSSSSSSSS",
"SSSSSSSSSS8yyhhxxxhss8SSSSSSSSSS",
"SSSSSSSSSSShhhxysysshSSSSSSSSSSS",
"SSSSSSSSSSSSyxxxvxxh6SSSSSSSSSSS",
"SSSSSSSSSSSSAyyrr88mSSSSSSSSSSSS",
"SSSSSSSSSSSSSrsshsySSSSSSSSSSSSS",
"SSSSSSSSSSSSSSyyyySSSSSSSSSSSSSS",
"SSSSSSSSSSSSSSSssSSSSSSSSSSSSSSS",
"SSSSSSSSSSSSSSSSSSSSSSSSSSSSSSSS",
"SSSSSSSSSSSSSSSSSSSSSSSSSSSSSSSS",
"SSSSSSSSSSSSSSSSSSSSSSSSSSSSSSSS",
"SSSSSSSSSSSSSSSSSSSSSSSSSSSSSSSS",
"SSSSSSSSSSSSSSSSSSSSSSSSSSSSSSSS"
};
